<svg data-v-0dd9719b="" version="1.0" xmlns="http://www.w3.org/2000/svg" xmlns:xlink="http://www.w3.org/1999/xlink" width="100%" height="100%" viewBox="0 0 340.000000 250.000000" preserveAspectRatio="xMidYMid meet" color-interpolation-filters="sRGB" style="margin: auto;"> <rect data-v-0dd9719b="" x="0" y="0" width="100%" height="100%" fill="#fff" fill-opacity="1" class="background"></rect> <rect data-v-0dd9719b="" x="0" y="0" width="100%" height="100%" fill="url(#watermark)" fill-opacity="1" class="watermarklayer"></rect> <g data-v-0dd9719b="" fill="#00a0e9" class="icon-text-wrapper icon-svg-group iconsvg" transform="translate(47.36499786376953,94.40398979187012)"><g class="iconsvg-imagesvg" transform="translate(0,0)"><g><rect fill="#00a0e9" fill-opacity="0" stroke-width="2" x="0" y="0" width="60" height="61.19202056051891" class="image-rect"></rect> <svg x="0" y="0" width="60" height="61.19202056051891" filtersec="colorsb6049290036" class="image-svg-svg primary" style="overflow: visible;"><svg xmlns="http://www.w3.org/2000/svg" viewBox="0 0.0013545824913308024 30.95177459716797 31.566667556762695"><g><g><path d="M15 2.14a14.66 14.66 0 0 1 5.87-.68 14.86 14.86 0 0 0-17.8 12.63h1.8A14.87 14.87 0 0 1 15 2.14zm.74.86a14.2 14.2 0 0 0-9.6 11.09h1.7A14.23 14.23 0 0 1 23 2.6a14.06 14.06 0 0 0-7.29.4zm-3.21-2a15.56 15.56 0 0 1 6.12-.67A15.47 15.47 0 0 0 .07 14.09h1.87A15.48 15.48 0 0 1 12.53 1z" fill="#00a0e9"></path><path d="M27.23 22.66a14.9 14.9 0 0 1-2.35 5.43 14.85 14.85 0 0 0-2.05-21.7L21.93 8a14.88 14.88 0 0 1 5.3 14.66zm-1.12.22A14.2 14.2 0 0 0 21.31 9l-.86 1.5a14.23 14.23 0 0 1 2.35 18.91 14.15 14.15 0 0 0 3.31-6.53zm3.29-1.78a15.26 15.26 0 0 1-2.4 5.66 15.49 15.49 0 0 0-2.62-23L23.4 5.4a15.51 15.51 0 0 1 6 15.7z" fill="#fcc800"></path><path d="M3.63 23.21a14.88 14.88 0 0 1-3.52-4.75 14.68 14.68 0 0 0 4.18 6.41 14.87 14.87 0 0 0 15.63 2.67L19 26a14.86 14.86 0 0 1-15.37-2.79zM4 22.13a14.23 14.23 0 0 0 14.41 2.78l-.87-1.5a14.22 14.22 0 0 1-14.16-2.87A14.07 14.07 0 0 1 0 16a14.13 14.13 0 0 0 4 6.13zm-.1 3.74a15.35 15.35 0 0 1-3.68-4.95 15.49 15.49 0 0 0 21.21 9.22l-.94-1.62A15.48 15.48 0 0 1 3.9 25.87z" fill="#e60012"></path></g></g></svg></svg> <!----></g></g> <g transform="translate(67,5.734760284423828)"><g data-gra="path-name" fill-rule="" class="tp-name iconsvg-namesvg" transform="translate(0,0)"><g transform="scale(1)"><g><path d="M7.38-12.31L11.99-10.4 6.23 2.27 3.67 0.32 1.19-0.07 7.38-12.31ZM10.44-17.78L7.81-13.25 0.58-16.99 3.28-21.42 10.44-17.78ZM26.89-1.98L32.62-1.98Q33.98-1.98 34.92-2.7L34.92-2.7 34.16 2.48 25.92 2.48Q24.08 2.48 23 1.44L23 1.44Q21.92 0.4 21.92-1.37L21.92-1.37 21.92-12.38Q19.19-3.56 17.06 2.52L17.06 2.52 13.75 2.27 11.23 3.67Q15.34-8.6 18.76-20.2L18.76-20.2 16.24-20.12 16.24-15.23 11.38-15.23 11.38-23.69Q11.38-24.05 11.34-24.23L11.34-24.23 9.47-21.46 2.84-25.67 5.83-29.88 12.42-25.81 11.95-25.13Q13.36-24.95 14.11-24.91L14.11-24.91 20.16-24.91 21.82-30.64 27.5-30.64 25.74-24.91 31.93-24.91Q33.23-24.91 33.23-23.69L33.23-23.69 33.23-15.62 28.04-15.62 28.04-20.2Q26.82-20.23 24.34-20.23L24.34-20.23 22.79-15.19Q24.66-14.62 26.89-14.9L26.89-14.9 26.89-1.98ZM43.45-24.19L43.45-7.45Q47.09-8.17 47.3-11.59L47.3-11.59Q47.52-15.05 44.64-16.96L44.64-16.96Q46.01-20.74 46.87-24.19L46.87-24.19 43.45-24.19ZM41.22-28.69L52.63-28.66Q51.44-23.44 49.39-17.82L49.39-17.82Q52.34-15.73 52.06-11.45L52.06-11.45Q51.73-4.32 44.86-3.49L44.86-3.49 44.71-5.29 43.45-7.09 43.45 3.31 38.74 3.31 38.74-25.06Q38.74-27.86 38.34-29.45L38.34-29.45Q39.78-28.98 41.22-28.69L41.22-28.69ZM57.96-4.28L64.08-4.28 64.08-12.28Q60.16-12.35 57.96-12.31L57.96-12.31 57.96-4.28ZM64.12-23.8L57.96-23.83 57.96-16.81 64.12-16.81 64.12-23.8ZM53.96-28.62L57.96-28.55Q61.02-28.51 66.13-28.4L66.13-28.4Q67.93-28.33 68.62-27.72L68.62-27.72Q69.26-27.07 69.26-25.38L69.26-25.38Q69.12-16.34 68.8 0.72L68.8 0.72 53.28 0.72 53.96-28.62ZM100.15-16.42L100.44-15.77Q101.02-17.53 101.56-19.33L101.56-19.33Q100.12-19.33 99.4-19.3L99.4-19.3 98.42-15.91 100.15-16.42ZM102.92-10.33L107.6-0.11 106.2 0.4 104.47 3.42 100.91-4.39Q99.25 0.36 98.35 2.81L98.35 2.81 95.69 2.52 93.74 3.6Q95.33-0.61 96.34-3.6L96.34-3.6 90.32 1.12 89.28-1.3 87.88-2.59 89.1-3.46 89.1-7.42 86.76-7.42 85.46 2.02 82.94 1.73 81.22 2.77Q81.86-1.48 83.09-11.38L83.09-11.38 92.3-11.38Q93.38-11.38 93.38-10.37L93.38-10.37 93.38-6.44 95.36-7.85 97.02-5.54 98.46-9.72 97.31-12.2 96.84-10.66 94.82-12.46 93.49-12.6 93.53-12.67Q88.31-12.82 81.65-12.64L81.65-12.64 81.86-15.48 81.47-16.67 94.21-16.67 94-14.26 94.86-17.24 92.3-17.24 92.3-18.04 81.97-18.04 81.97-18.22 80.64-16.42 80.64 2.81 76.25 2.81 76.25-10.73 74.48-8.6 73.44-12.06 72.47-12.96Q75.85-17.03 79.13-21.96L79.13-21.96 81.97-20.7 81.97-26.5Q79.06-23.26 75.31-19.91L75.31-19.91 74.41-23.11 73.4-24.05Q76.39-26.82 78.91-29.81L78.91-29.81 81.76-28.04 81.72-28.12Q84.35-27.65 85.43-27.83L85.43-27.83 85.43-21.89 86.83-21.89 86.83-29.23Q86.83-30.24 86.62-30.78L86.62-30.78Q89.39-30.35 90.9-30.46L90.9-30.46 90.9-21.89 92.3-21.89 92.3-27Q92.3-27.94 92.12-28.55L92.12-28.55Q94.5-28.12 95.8-28.22L95.8-28.22 95.8-20.77Q96.84-24.84 98.1-30.85L98.1-30.85 102.2-30.53Q101.3-26.64 100.55-23.65L100.55-23.65 107.57-23.65 107.28-19.3 105.95-19.33 102.92-10.33ZM120.17-1.66L132.3-1.66 132.3-3.85Q126.32-3.92 120.17-3.85L120.17-3.85 120.17-1.66ZM122.69-12.92L118.84-16.02 116.89-12.96 122.69-12.92ZM120.96-18.22L120.17-18.22 119.34-16.85 120.96-18.22ZM113.8-22.14L117.11-22.14Q117.79-23.26 118.33-24.26L118.33-24.26Q117.29-24.26 115.42-24.19L115.42-24.19 113.8-22.14ZM132.3-7.38L132.3-9.58 120.17-9.61 120.17-7.38 132.3-7.38ZM127.44-14.69L125.46-12.92Q126.86-12.89 129.96-12.89L129.96-12.89 135.58-12.85Q136.84-12.82 137.27-12.46L137.27-12.46Q137.7-12.06 137.66-11.02L137.66-11.02Q137.52-5.26 137.38 1.98L137.38 1.98 115.06 1.98 115.52-10.87 115.16-10.33 112.1-10.69 109.48-10.08Q112.43-14.4 114.73-18.18L114.73-18.18 112.75-18.14Q111.49-18.14 110.84-18.11L110.84-18.11 111.02-20.88 110.63-22.14 110.7-22.14 110.52-22.36 109.08-22.75Q112.28-26.68 115.09-31.1L115.09-31.1 119.52-29.99 118.33-28.22 127.26-28.22 126.9-24.23Q125.89-24.26 123.66-24.26L123.66-24.26Q123.48-23.9 123.08-23.22L123.08-23.22 122.47-22.14 127.66-22.14 127.19-18.14Q126.5-18.18 125.1-18.18L125.1-18.18 122.94-18.22 127.44-14.69ZM136.22-18.32L136.22-24.84 132.26-24.84 132.26-18.32 136.22-18.32ZM128.3-28.22L139.39-28.15Q140.33-28.12 140.62-27.83L140.62-27.83Q140.94-27.54 140.9-26.64L140.9-26.64 140.62-14.69 127.84-14.69 128.3-28.22ZM149.94-23.51L150.08-26.57 149.58-28.19 174.42-28.19 173.7-23.58Q163.87-23.76 149.94-23.51L149.94-23.51ZM178.85-18.97L177.88-14.22Q170.93-14.33 163.01-14.33L163.01-14.33Q160.74-11.09 156.56-5.22L156.56-5.22 167.26-5.22 164.16-11.34 168.95-13.43 176.22 0.47 171.32 2.77 169.99 0.14 150.48 0.14Q148.5 0.14 148-1.08L148-1.08Q147.53-2.27 148.68-3.92L148.68-3.92 155.88-14.29Q148.97-14.22 145.66-14.15L145.66-14.15 145.76-17.14 145.15-18.97 178.85-18.97Z" transform="translate(-0.5799999833106995, 31.100000381469727)"></path></g> <!----> <!----> <!----> <!----> <!----> <!----> <!----></g></g> <g data-gra="path-slogan" fill-rule="" class="tp-slogan iconsvg-slogansvg" fill="#00a0e9" transform="translate(10.994178771972656,40.77000045776367)"><!----> <!----> <g transform="scale(1, 1)"><g transform="scale(1)"><path d="M7.17-6.09L7.17-6.09L6.09-6.09Q6-7.73 3.94-7.83L3.94-7.83Q2.02-7.78 2.02-6.33L2.02-6.33Q2.02-5.39 3.05-5.25L3.05-5.25L5.48-4.69Q7.41-4.22 7.41-2.34L7.41-2.34Q7.36 0.05 4.03 0.14L4.03 0.14Q2.20 0.14 1.45-0.61L1.45-0.61Q0.52-1.31 0.56-2.77L0.56-2.77L1.69-2.77Q1.73-0.80 4.03-0.75L4.03-0.75Q6.28-0.80 6.33-2.20L6.33-2.20Q6.52-3.38 4.45-3.75L4.45-3.75L2.67-4.13Q0.84-4.64 0.84-6.19L0.84-6.19Q0.98-8.72 3.84-8.81L3.84-8.81Q7.08-8.81 7.17-6.09ZM10.03-5.06L14.53-5.06L14.53-8.58L15.70-8.58L15.70 0L14.53 0L14.53-3.98L10.03-3.98L10.03 0L8.86 0L8.86-8.58L10.03-8.58L10.03-5.06ZM18.80-1.03L23.95-1.03L23.95 0L17.63 0L17.63-8.58L23.86-8.58L23.86-7.59L18.80-7.59L18.80-4.92L23.48-4.92L23.48-3.89L18.80-3.89L18.80-1.03ZM26.86-8.58L31.17-1.64L31.17-8.58L32.30-8.58L32.30 0L30.98 0L26.63-6.94L26.58-6.94L26.58 0L25.45 0L25.45-8.58L26.86-8.58ZM41.02-8.58L37.78-3.47L37.78 0L36.61 0L36.61-3.47L33.38-8.58L34.73-8.58L37.17-4.45L39.66-8.58L41.02-8.58ZM47.72 0L46.88-2.48L43.41-2.48L42.52 0L41.34 0L44.58-8.58L45.89-8.58L48.98 0L47.72 0ZM45.14-7.31L43.78-3.52L46.45-3.52L45.19-7.31L45.14-7.31ZM51.42-8.58L55.73-1.64L55.73-8.58L56.86-8.58L56.86 0L55.55 0L51.19-6.94L51.14-6.94L51.14 0L50.02 0L50.02-8.58L51.42-8.58ZM65.06-3.61L62.44-3.61L62.44-4.59L66.19-4.59L66.19 0L65.44 0L65.16-1.08Q64.17 0.09 62.34 0.14L62.34 0.14Q60.61 0.14 59.67-0.75L59.67-0.75Q58.27-2.06 58.31-4.36L58.31-4.36Q58.64-8.63 62.39-8.81L62.39-8.81Q65.58-8.63 66.05-6L66.05-6L64.92-6Q64.45-7.78 62.34-7.83L62.34-7.83Q59.67-7.64 59.53-4.31L59.53-4.31Q59.53-0.75 62.39-0.75L62.39-0.75Q63.42-0.75 64.17-1.31L64.17-1.31Q65.11-2.06 65.06-3.61L65.06-3.61ZM76.08-7.13L76.03-7.13L74.06 0L72.84 0L70.59-8.58L71.81-8.58L73.45-1.59L73.50-1.59L75.42-8.58L76.69-8.58L78.61-1.59L78.66-1.59L80.25-8.58L81.52-8.58L79.27 0L78.05 0L76.08-7.13ZM83.91-1.03L89.06-1.03L89.06 0L82.73 0L82.73-8.58L88.97-8.58L88.97-7.59L83.91-7.59L83.91-4.92L88.59-4.92L88.59-3.89L83.91-3.89L83.91-1.03ZM90.75-8.58L91.92-8.58L91.92 0L90.75 0L90.75-8.58ZM94.73-1.03L100.03-1.03L100.03 0L93.28 0L93.28-0.94L98.53-7.59L93.66-7.59L93.66-8.58L100.03-8.58L100.03-7.59L94.73-1.03ZM102.33-5.06L106.83-5.06L106.83-8.58L108-8.58L108 0L106.83 0L106.83-3.98L102.33-3.98L102.33 0L101.16 0L101.16-8.58L102.33-8.58L102.33-5.06ZM109.97-8.58L111.14-8.58L111.14 0L109.97 0L109.97-8.58ZM123.61-6.05L123.61-6.05L122.48-6.05Q122.06-7.78 120.09-7.83L120.09-7.83Q117.38-7.69 117.28-4.36L117.28-4.36Q117.28-0.80 120.14-0.80L120.14-0.80Q122.11-0.84 122.58-3.19L122.58-3.19L123.70-3.19Q123.19 0.05 119.91 0.14L119.91 0.14Q116.16 0 116.06-4.31L116.06-4.31Q116.25-8.63 120.09-8.81L120.09-8.81Q123.14-8.72 123.61-6.05ZM125.06-8.58L126.23-8.58L126.23-1.03L130.59-1.03L130.59 0L125.06 0L125.06-8.58ZM138.52-4.27L138.52-4.27Q138.33-7.64 135.52-7.83L135.52-7.83Q132.66-7.69 132.52-4.27L132.52-4.27Q132.66-0.94 135.52-0.80L135.52-0.80Q138.33-0.98 138.52-4.27ZM139.69-4.27L139.69-4.27Q139.41 0 135.52 0.14L135.52 0.14Q131.58 0 131.30-4.27L131.30-4.27Q131.53-8.72 135.52-8.81L135.52-8.81Q139.41-8.67 139.69-4.27ZM146.72-3.19L146.72-8.58L147.89-8.58L147.89-3.05Q147.75 0.05 144.38 0.14L144.38 0.14Q141.23 0.05 141.09-2.86L141.09-2.86L141.09-8.58L142.27-8.58L142.27-3.19Q142.31-0.84 144.42-0.80L144.42-0.80Q146.72-0.84 146.72-3.19L146.72-3.19ZM153.19 0L149.72 0L149.72-8.58L153.23-8.58Q156.70-8.39 156.84-4.41L156.84-4.41Q156.66-0.09 153.19 0L153.19 0ZM153.05-7.64L150.89-7.64L150.89-0.98L153.14-0.98Q155.58-1.13 155.67-4.31L155.67-4.31Q155.63-7.55 153.05-7.64L153.05-7.64Z" transform="translate(-0.5602678571428572, 8.8125)"></path></g></g></g></g></g><defs v-gra="od"></defs></svg>